<svg width="29" height="27" viewBox="0 0 29 27" fill="none" xmlns="http://www.w3.org/2000/svg">
<path d="M28.1936 16.8635V27.0096H22.3114V17.5428C22.3114 15.164 21.4602 13.5415 19.3317 13.5415C17.7065 13.5415 16.7385 14.636 16.3136 15.6934C16.1583 16.0715 16.1184 16.5981 16.1184 17.1275V27.0096H10.2334C10.2334 27.0096 10.3131 10.9771 10.2334 9.31477H16.1184V11.8228L16.0799 11.8805H16.1184V11.8228C16.8994 10.6196 18.295 8.89952 21.4204 8.89952C25.291 8.89952 28.1936 11.4295 28.1936 16.8635ZM4.07888 0.785645C2.06725 0.785645 0.75 2.10564 0.75 3.84227C0.75 5.54039 2.02875 6.90027 4.00188 6.90027H4.04037C6.09325 6.90027 7.36788 5.54039 7.36788 3.84227C7.33213 2.10564 6.09325 0.785645 4.07888 0.785645ZM1.09925 27.0096H6.9815V9.31477H1.09925V27.0096Z" fill="white"/>
</svg>
