<?xml version="1.0" encoding="UTF-8"?>
<svg id="Camada_2" data-name="Camada 2" xmlns="http://www.w3.org/2000/svg" viewBox="0 0 287.52 175.87">
  <defs>
    <style>
      .cls-1 {
        stroke: #dbb256;
      }

      .cls-1, .cls-2, .cls-3, .cls-4 {
        fill: none;
        stroke-linejoin: round;
        stroke-width: 4px;
      }

      .cls-5 {
        fill: #fefefe;
      }

      .cls-5, .cls-6, .cls-7, .cls-8, .cls-9, .cls-10, .cls-11, .cls-12, .cls-13, .cls-14, .cls-15 {
        stroke-width: 0px;
      }

      .cls-6 {
        fill: #e5945a;
      }

      .cls-2 {
        stroke: #e5945a;
      }

      .cls-3 {
        stroke: #e36b53;
        stroke-linecap: round;
      }

      .cls-7 {
        fill: #0071bc;
      }

      .cls-4 {
        stroke: #dbc06f;
      }

      .cls-9 {
        fill: #fcfafe;
      }

      .cls-10 {
        fill: #fff;
      }

      .cls-11 {
        fill: #dbb256;
      }

      .cls-12 {
        fill: #dbc06f;
      }

      .cls-13 {
        fill: #7534fe;
      }

      .cls-14 {
        fill: #39b54a;
      }

      .cls-15 {
        fill: #e36b53;
      }
    </style>
  </defs>
  <g id="Camada_1-2" data-name="Camada 1">
    <g>
      <rect class="cls-3" x="2" y="20.9" width="264.97" height="152.97"/>
      <rect class="cls-2" x="8.18" y="14.41" width="264.97" height="152.97"/>
      <rect class="cls-1" x="14.37" y="8.4" width="264.97" height="152.97"/>
      <rect class="cls-4" x="20.55" y="2" width="264.97" height="152.88"/>
      <g>
        <rect class="cls-14" x="35.35" y="47.02" width="40.82" height="40.82" rx="6.06" ry="6.06"/>
        <g>
          <g>
            <path class="cls-11" d="m59.4,67.2c-.87-.49-1.8-.9-2.7-1.35-1.05-.4-2.2-.64-3.01-1.51-.72-.76-.68-1.67.12-2.36.46-.39,1.01-.55,1.62-.61,1.39-.14,2.67.24,3.91.78.67.3,1.24.12,1.64-.44.42-.59.41-1.21-.11-1.76-.26-.28-.55-.52-.94-.68-1.93-.75-3.91-.73-5.9-.38-2.35.41-4.63,1.8-4.43,4.82.11,1.66.97,2.82,2.44,3.65,1.78,1,3.81,1.53,5.49,2.72.5.36.84.85.76,1.47-.09.7-.43,1.31-1.16,1.55-.42.14-.86.25-1.32.28-1.38.1-2.53-.46-3.73-.99-.67-.3-1.41-.4-2.04.12-.55.46-.53,1.1-.31,1.69.26.68.9,1,1.56,1.22,2.23.74,4.5.88,6.79.33,2.22-.54,3.53-1.88,3.77-3.81.25-2.1-.62-3.68-2.47-4.74Z"/>
            <path class="cls-11" d="m70.64,54.08c-3.05-3.05-7.79-3.34-11.19-.93-1.18-.31-2.41-.48-3.69-.48-8.13,0-14.71,6.59-14.71,14.72,0,.31.03.61.05.92-.07.06-.14.11-.21.17-3.4,3.4-3.4,8.92,0,12.33,3.08,3.08,7.88,3.34,11.29.84,1.15.29,2.35.46,3.59.46,8.13,0,14.72-6.59,14.72-14.71,0-.27-.03-.54-.04-.81.06-.06.14-.1.2-.17,3.4-3.4,3.4-8.92,0-12.33Zm-8.76,17.86c-.23,1.93-1.54,3.28-3.77,3.81-2.29.55-4.56.41-6.79-.33-.66-.22-1.3-.54-1.56-1.22-.23-.59-.24-1.23.31-1.69.62-.52,1.37-.42,2.04-.12,1.19.53,2.35,1.1,3.73.99.46-.03.9-.15,1.32-.28.73-.24,1.07-.85,1.16-1.55.08-.62-.25-1.11-.76-1.47-1.68-1.19-3.71-1.72-5.49-2.72-1.48-.83-2.33-1.99-2.44-3.65-.19-3.02,2.09-4.41,4.43-4.82,1.99-.35,3.97-.37,5.9.38.39.15.68.39.94.68.51.55.52,1.17.11,1.76-.4.57-.97.74-1.64.44-1.24-.55-2.52-.92-3.91-.78-.61.06-1.16.22-1.62.61-.8.69-.84,1.6-.12,2.36.81.86,1.96,1.1,3.01,1.51.9.45,1.82.85,2.7,1.35,1.86,1.05,2.73,2.64,2.47,4.74Z"/>
          </g>
          <path class="cls-10" d="m60.24,66.84c-1.16-.66-2.39-1.2-3.58-1.79-1.4-.54-2.92-.86-4-2-.96-1.02-.91-2.23.16-3.14.61-.52,1.35-.74,2.16-.81,1.85-.18,3.54.31,5.2,1.04.89.39,1.65.17,2.19-.59.55-.78.54-1.61-.14-2.34-.35-.38-.73-.7-1.25-.9-2.57-1-5.2-.97-7.85-.5-3.12.55-6.15,2.39-5.89,6.41.15,2.21,1.28,3.74,3.25,4.85,2.37,1.33,5.07,2.03,7.3,3.62.67.48,1.11,1.13,1,1.95-.12.93-.57,1.74-1.54,2.06-.56.18-1.14.33-1.75.37-1.83.14-3.37-.61-4.95-1.32-.89-.4-1.88-.53-2.71.16-.73.61-.71,1.46-.41,2.24.35.9,1.2,1.33,2.08,1.62,2.96.98,5.99,1.17,9.03.43,2.95-.71,4.7-2.5,5.01-5.07.34-2.79-.82-4.9-3.29-6.3Z"/>
        </g>
      </g>
      <g>
        <rect class="cls-7" x="80.37" y="47.02" width="40.82" height="40.82" rx="6.06" ry="6.06"/>
        <path class="cls-10" d="m114.14,61.17c-1.95-7.18-9.03-10.64-16.09-9.44-11.52,1.19-13.83,15.75-9.77,24.65,3.45,8.4,16.44,9.7,22.36,3.27,3.65-4,2.89-10.11-1.68-12.77-.93-.54-1.29-1.12-1.45-2.15-.44-2.75-1.9-4.8-4.72-5.48-2.95-.7-5.63-.17-7.7,2.27-.28.32-.37.54.08.8.52.3,1.01.67,1.51,1.01.23.16.39.28.64-.02,2.09-2.59,6.73-2.32,6.78,1.43-2.67-.32-4.85.12-7.26,1.6-3.07,1.91-3.32,6.04-.51,8.3,2.24,1.81,6.04,1.86,8.43.11,1.78-1.31,2.43-1.76,2.84-3.93,4.44,2.69,2.5,7.42-2.15,9.09-2.23.9-4.54,1.01-6.9.69-3.64-.49-6.42-2.27-7.85-5.72-2.8-6.8-1.98-18.33,6.65-20.13,5.25-1.2,11.31.37,13.52,5.74.27.61.2,1.6.84,1.76.61.16,1.37-.31,2.07-.44.45-.08.48-.27.36-.65Zm-8.79,8.8c-.48,3.84-4.27,4.28-7.24,3.3-1.99-.52-1.56-4.86.31-5.6,1.06-.54,2.39-.34,3.56-.37.72.06,1.44.1,2.16.13.56.02,1.28,2,1.21,2.54Z"/>
      </g>
      <g>
        <rect class="cls-13" x="125.64" y="47.02" width="40.82" height="40.82" rx="6.06" ry="6.06"/>
        <path class="cls-10" d="m154.06,74.38c-2.01.02-4.02,0-6.02,0-1.52,0-1.97-.44-1.98-1.95,0-2.82,0-5.63,0-8.59h0s.01-10.92.01-10.92l-9.98,2.39,6.85,9.8c-1.76.71-3.51,1.42-5.23,2.13-.52.21-.78.61-.78,1.22.03,1.75-.07,3.5.05,5.24.29,4.51,3.15,8.42,7.85,9.45,3.17.69,6.38.24,9.58.33.6.02.78-.47.78-1.02,0-2.33-.01-4.66,0-6.99,0-.79-.34-1.09-1.12-1.08Z"/>
      </g>
      <g>
        <rect class="cls-15" x="171.29" y="47.02" width="40.82" height="40.82" rx="6.06" ry="6.06"/>
        <g>
          <path class="cls-5" d="m197.15,73.93c-1.45,1.02-2.91,2.02-4.65,2.69-3.54,1.35-9.99.52-11.73-3.35-1.61-3.58-.97-8.76,4.93-10.52,2.64-.78,5.41-.88,8.12-1.31.29-.05.59-.05.87-.12,1.26-.29,2.41-.73,2.4-2.12,0-1.44-1.41-1.94-2.5-2.21-3.25-.82-5.03-.05-6.53,2.58-.29.5-.63.52-1.1.51-1.65,0-3.3-.05-4.94.02-.98.04-1.18-.26-1.06-1.09.51-3.5,3.07-6.15,7.1-6.97,3.66-.75,7.34-.7,10.93.46,3.86,1.24,5.35,3.03,5.4,6.67.06,4.52.04,9.03.06,13.55,0,.95-.02,1.92,1.07,2.51.44.23.45.61.3.97-.16.4-.6.25-.91.25-1.88.02-3.77-.07-5.64.04-1.18.07-1.53-.45-1.75-1.29-.1-.39.1-.84-.37-1.25Zm-.04-7.35c-.35-.39.64-1.61-.71-1.42-2.42.35-4.81.91-7.14,1.6-1.55.45-2.23,1.92-1.92,3.33.33,1.52,1.36,2.28,3.2,2.35,4.14.16,6.52-1.94,6.56-5.86Z"/>
          <path class="cls-9" d="m193.05,79.68c3.82,0,7.64.02,11.46-.01,1.05,0,1.48.13,1.41.75-.1.84-.06,1.68,0,2.52.03.47-.14.7-1.13.7-7.87-.02-15.75-.02-23.62,0-1,0-1.17-.24-1.15-.7.04-.84.07-1.68,0-2.52-.06-.61.37-.76,1.43-.75,3.88.03,7.76.01,11.63.01Z"/>
        </g>
      </g>
      <g>
        <rect class="cls-6" x="35.35" y="92.23" width="40.82" height="40.82" rx="6.06" ry="6.06"/>
        <path class="cls-10" d="m55.65,106.29c7.83-31.74,24.1,18.55,13.57,22.7-2.51-5.03-6.38-48.25-11.32-3.84,0,1.05-4.17,1.07-4.18-.03-6.4-45.92-8.63-.37-11.58,3.88-10.31-4.33,6.16-54.5,13.51-22.7Z"/>
      </g>
      <g>
        <rect class="cls-12" x="80.51" y="92.23" width="40.82" height="40.82" rx="6.06" ry="6.06"/>
        <g>
          <path class="cls-10" d="m101.6,99l1.75-3.14s.36.14,3.51,3.34c-.4.89-7.58,14.51-8.37,17.02-.31.99,4.62.21,4.85.6.92,1.56,1.82,3.14,2.76,4.77-.37.04-18.47-.51-18.47-.51l-4.99-2.2,2.88-2.71h4.46s7.76-12.11,7.76-12.11l-2.43-5.72,5.33-2.49.97,3.15Z"/>
          <polygon class="cls-10" points="115.3 121.64 117 124.59 117.25 127.15 115.06 128.82 112.6 127.82 103.16 111.58 105.16 107.34 106.03 105.61 107.41 107.99 111.89 115.76 112.64 116.19 117.56 116.19 120.19 118.34 118.67 121.36 115.3 121.64 115.3 121.64"/>
          <path class="cls-10" d="m93.89,122.57c-.94,1.74-2.7,4.95-2.7,4.95l-3.9.87-1.11-4.66,2.04-1.16h5.67Z"/>
        </g>
      </g>
      <g>
        <rect class="cls-15" x="125.64" y="92.23" width="40.82" height="40.82" rx="6.06" ry="6.06"/>
        <path class="cls-10" d="m141.86,126.06s-1.08,2.65-2.61,2.92c-1.66.29-2.89-.45-3.52-2.07.11-.46.36-23.23-.12-23.73-.04-1.25-.07-2.49-.12-3.74-.07-1.92.74-3.31,2.64-3.67,3.35-.19,3.68,2.42,3.68,2.42,0,0-.22,5.36-.37,8.04-.05.93-.31,1.97.51,2.76,1.1.28,2.43-1.1,2.43-1.1,0,0,5.57-6.68,8.37-10.02,1.56-1.85,3.54-2.33,4.81-1.18,1.78,1.61,1.85,3.39.19,5.4-2.47,2.98-4.93,5.96-7.45,8.89-.96,1.12-1.17,1.69.2,2.92,2.38,2.13,4.34,4.74,6.43,7.19.62.73,1.12,1.52,1.92,2.12,1.48,1.09,1.71,3.21.62,4.59-1.18,1.5-3.31,1.73-4.73.31-2-2-5.74-6.25-5.74-6.25,0,0-2.69-4.69-4.55-6.15s-2.5.06-2.5.06l-.08,10.3Z"/>
      </g>
      <g>
        <rect class="cls-13" x="171.29" y="92.23" width="40.82" height="40.82" rx="6.06" ry="6.06"/>
        <g>
          <path class="cls-10" d="m204.78,104.27c.25.7.62,1.34.88,2.04.46,1.24.75,2.51.95,3.82.18,1.15.12,2.31.13,3.47,0,.6-.05.65-.59.65-6.73,0-13.46,0-20.18,0-.52,0-.61.11-.55.65.19,1.69.78,3.2,1.91,4.39,1.7,1.79,3.74,2.53,6.09,1.96,1.81-.44,3.24-1.5,4.19-3.25.12-.23.3-.29.51-.29,2.42,0,4.84-.01,7.27,0,.54,0,.59.07.38.63-.7,1.85-1.64,3.54-2.88,5.03-1.74,2.1-3.86,3.58-6.31,4.5-1.38.52-2.81.79-4.29.85-1.83.07-3.6-.2-5.34-.81-.7-.25-1.38-.57-2.06-.9-.28-.24-.56-.47-.91-.57-.46-.34-.93-.67-1.38-1.04-2.3-1.92-3.97-4.34-5-7.29,0-.17.03-.33.11-.48.35-.68.68-1.38,1.05-2.04,1.4-2.49,3.04-4.79,4.9-6.9,2.03-2.29,4.1-4.55,6.4-6.53,1.92-1.65,3.91-3.16,6.11-4.35.39-.21.77-.5,1.24-.44.04.03.07.07.11.09,2.75,1.26,4.96,3.23,6.64,5.91.05.07.08.16.19.13.05.31.16.58.4.76Zm-13.06,5.79c1.93,0,3.86,0,5.79,0,.5,0,.52-.01.47-.54-.16-1.52-.71-2.87-1.74-3.92-1.88-1.91-4.09-2.49-6.54-1.62-2.45.87-3.88,2.75-4.25,5.54-.06.48,0,.54.45.54,1.94,0,3.88,0,5.83,0Z"/>
          <path class="cls-10" d="m192.48,96.24c-.23.41-.66.5-1.01.69-.94.52-1.85,1.09-2.74,1.7-1.14.78-2.25,1.62-3.31,2.54-1.09.94-2.07,2-3.05,3.08-1.32,1.46-2.52,3.03-3.63,4.66-.6.89-1.16,1.81-1.69,2.75-.09.16-.22.3-.34.45-.12-.77.04-1.53.15-2.28.14-.96.35-1.91.66-2.82.58-1.69,1.37-3.25,2.41-4.66,1.15-1.58,2.52-2.88,4.12-3.9,1.46-.94,3.03-1.58,4.7-1.95,1.1-.25,2.2-.33,3.32-.3.14,0,.29.03.43.04Z"/>
        </g>
      </g>
      <g>
        <rect class="cls-7" x="215.77" y="92.23" width="40.82" height="40.82" rx="6.06" ry="6.06"/>
        <path class="cls-10" d="m239.65,108.99c1.73.76,1.95,2.25,1.96,3.91.01,1.87-.26,3.76.14,5.62.11.49.07,1.15.7,1.26.65.12.74-.57.97-.99,1.09-2.03,2.15-4.08,3.37-6.41.34,2.35.67,4.39.9,6.44.09.82.33,1.1,1.08,1.08,1.79-.06,3.59-.02,5.45.21-1.62,1.29-3.23,2.61-4.88,3.84-.61.46-.84.88-.69,1.76.34,1.99.53,4.02.82,6.34-1.39-1.19-2.58-2.22-3.77-3.25q-1.43-1.24-3.01-.18c-1.4.94-2.8,1.89-4.22,2.82-.28.18-.51.53-1.03.39.88-2.13,1.7-4.26,2.63-6.31.42-.91.33-1.48-.33-2.16-.88-.91-1.63-1.97-2.48-2.9-.62-.67-.87-1.44-.84-2.37.04-1.38.11-2.76.09-4.13-.02-1.52-1.15-2.74-2.5-2.77-1.01-.02-2.02.02-3.03-.02-.33-.02-.62.23-.68.6-.37,2.24-.85,4.46-1.23,6.71-.09.52-.49.88-.96.85-1.18-.07-2.38-.08-3.56,0-.82.05-.88-.31-.73-1.07,1.2-6.29,2.37-12.58,3.56-18.87.27-1.43,1.4-2.45,2.7-2.43,3.12.05,6.25-.2,9.37.15,3.07.34,4.48,1.89,4.73,5.06.26,3.38-1.13,5.77-3.88,6.66-.15.05-.3.08-.64.17Zm11.47,12.23c-.02-.07-.05-.15-.07-.22-1.08,0-2.17-.03-3.25.01-.58.02-.84-.16-.91-.87-.14-1.43-.39-2.85-.63-4.5-.86,1.63-1.65,3.05-2.37,4.52-.29.59-.62.79-1.2.76-1.14-.05-2.28-.01-3.64-.01.68.83,1.16,1.54,1.75,2.08.88.79.9,1.57.36,2.62-.57,1.1-.97,2.29-1.45,3.45,1.41-.65,2.68-1.44,3.89-2.33.59-.44.98-.39,1.5.12.94.91,1.95,1.72,3.08,2.71-.22-1.62-.37-2.99-.6-4.34-.13-.76-.03-1.28.62-1.72,1.01-.69,1.96-1.52,2.93-2.28Zm-17.4-14.2c1.52-.01,2.86.14,4.16-.59.68-.38,1.12-1.19,1.15-2.05.06-1.66-.51-2.49-2.08-2.68-.74-.09-1.5-.08-2.24-.09-2.38,0-2.39,0-2.88,2.54-.17.89-.68,2.1-.35,2.63.43.7,1.57.1,2.25.24Z"/>
      </g>
      <g>
        <path class="cls-10" d="m244.1,81.26c-.58,0-1.15-.24-1.55-.67l-5.54-5.85-4.3,4.06c-.53.5-1.21.77-1.93.77-1.21,0-2.28-.77-2.67-1.91l-8.08-23.64c-.3-.87-.16-1.8.37-2.55.53-.75,1.39-1.19,2.29-1.19.36,0,.72.07,1.07.21l23.14,9.4c.89.36,1.53,1.15,1.71,2.09.18.95-.13,1.91-.83,2.57l-4.29,4.06,5.54,5.84c.81.86.77,2.21-.08,3.02l-3.36,3.18c-.4.38-.92.58-1.47.58h0Z"/>
        <path class="cls-8" d="m222.67,51.3c.23,0,.46.04.69.14l23.14,9.4c1.23.5,1.53,2.1.57,3.01l-5.02,4.75,6.23,6.57c.43.45.41,1.18-.04,1.61l-3.36,3.18c-.22.21-.5.31-.78.31-.3,0-.6-.12-.83-.35l-6.23-6.58-5.03,4.75c-.36.34-.8.5-1.24.5-.74,0-1.46-.45-1.73-1.23l-8.08-23.64c-.42-1.24.54-2.41,1.71-2.41m0-2c-1.22,0-2.39.6-3.11,1.61-.72,1.01-.91,2.27-.5,3.45l8.08,23.64c.53,1.55,1.98,2.59,3.62,2.59.98,0,1.91-.37,2.62-1.04l3.57-3.38,4.86,5.13c.59.62,1.42.98,2.28.98.81,0,1.57-.3,2.16-.86l3.36-3.18c.61-.58.95-1.35.98-2.19.02-.84-.28-1.64-.86-2.24l-4.85-5.12,3.57-3.37c.95-.9,1.37-2.2,1.13-3.48-.24-1.28-1.11-2.34-2.32-2.83l-23.14-9.4c-.47-.19-.95-.29-1.45-.29h0Z"/>
      </g>
      <circle class="cls-9" cx="131" cy="96.9" r="2.35"/>
      <circle class="cls-9" cx="160.15" cy="112.64" r="2.35"/>
      <circle class="cls-9" cx="131" cy="127.84" r="2.35"/>
    </g>
  </g>
</svg>