<svg width="34" height="30" viewBox="0 0 34 30" fill="none" xmlns="http://www.w3.org/2000/svg">
<path d="M33.6309 15.2383C33.6309 13.2117 31.992 11.6021 29.9947 11.6021C29.0513 11.6009 28.1437 11.9639 27.4615 12.6156C24.958 10.8271 21.5303 9.66504 17.7154 9.51601L19.3842 1.70723L24.8086 2.86934C24.8686 4.24043 26.0008 5.34336 27.4019 5.34336C28.8324 5.34336 29.9947 4.18125 29.9947 2.75C29.9947 1.31953 28.8326 0.157227 27.4019 0.157227C26.3887 0.157227 25.4941 0.75332 25.077 1.61777L19.027 0.336133C18.848 0.306055 18.6691 0.336133 18.5498 0.425586C18.4008 0.515039 18.3115 0.663867 18.282 0.842773L16.4336 9.54551C12.5592 9.66504 9.07187 10.8271 6.53867 12.6455C5.85637 11.9938 4.94878 11.6308 4.00527 11.6322C1.97852 11.6322 0.369141 13.2711 0.369141 15.2684C0.369141 16.7584 1.26309 18.01 2.51523 18.5768C2.45443 18.9412 2.4245 19.31 2.42578 19.6795C2.42578 25.2822 8.95313 29.8428 17.0002 29.8428C25.0475 29.8428 31.5748 25.3123 31.5748 19.6795C31.5746 19.3101 31.5447 18.9413 31.4853 18.5768C32.7369 18.01 33.6309 16.7283 33.6309 15.2383ZM8.65469 17.8311C8.65469 16.4006 9.8168 15.2383 11.248 15.2383C12.6785 15.2383 13.8408 16.4004 13.8408 17.8311C13.8408 19.2617 12.6787 20.4244 11.248 20.4244C9.81699 20.4537 8.65469 19.2617 8.65469 17.8311ZM23.1697 24.716C21.3814 26.5045 17.9836 26.6238 17.0002 26.6238C15.9869 26.6238 12.5893 26.4744 10.8303 24.716C10.5625 24.4478 10.5625 24.0305 10.8303 23.7623C11.0986 23.4945 11.5158 23.4945 11.7842 23.7623C12.917 24.8951 15.3014 25.2822 17.0002 25.2822C18.6992 25.2822 21.1131 24.8949 22.2158 23.7623C22.4842 23.4945 22.9014 23.4945 23.1697 23.7623C23.408 24.0305 23.408 24.4478 23.1697 24.716ZM22.6926 20.4539C21.2619 20.4539 20.0998 19.2918 20.0998 17.8611C20.0998 16.4305 21.2619 15.2684 22.6926 15.2684C24.1236 15.2684 25.2857 16.4305 25.2857 17.8611C25.2857 19.2615 24.1236 20.4539 22.6926 20.4539Z" fill="white"/>
</svg>
