<svg width="23" height="23" viewBox="0 0 23 23" fill="none" xmlns="http://www.w3.org/2000/svg">
<path d="M12.3909 18.0249C12.5131 18.1467 12.6101 18.2913 12.6762 18.4506C12.7424 18.6099 12.7764 18.7807 12.7764 18.9532C12.7764 19.1257 12.7424 19.2965 12.6762 19.4558C12.6101 19.6151 12.5131 19.7598 12.3909 19.8815L11.742 20.5302C10.5125 21.7595 8.84494 22.4501 7.10615 22.4501C5.36735 22.4501 3.69977 21.7595 2.47025 20.5302C1.24074 19.301 0.550003 17.6337 0.550003 15.8953C0.550003 14.1568 1.24074 12.4896 2.47025 11.2603L5.10498 8.62719C6.28633 7.44316 7.87579 6.75554 9.54777 6.70519C11.2198 6.65483 12.8477 7.24555 14.0982 8.35635C14.2273 8.47108 14.3326 8.61012 14.4079 8.76552C14.4833 8.92091 14.5273 9.08963 14.5374 9.26203C14.5476 9.43443 14.5237 9.60715 14.467 9.7703C14.4104 9.93346 14.3222 10.0839 14.2075 10.213C14.0927 10.342 13.9536 10.4472 13.7982 10.5226C13.6428 10.5979 13.474 10.6419 13.3016 10.6521C13.1292 10.6622 12.9564 10.6383 12.7932 10.5817C12.63 10.5251 12.4796 10.4369 12.3505 10.3222C11.6006 9.65633 10.6246 9.3021 9.62215 9.33195C8.61969 9.36179 7.66651 9.77344 6.95759 10.4827L4.32505 13.1125C3.58745 13.85 3.17308 14.8502 3.17308 15.8931C3.17308 16.936 3.58745 17.9362 4.32505 18.6736C5.06264 19.4111 6.06303 19.8254 7.10615 19.8254C8.14926 19.8254 9.14965 19.4111 9.88725 18.6736L10.5361 18.0249C10.6578 17.9031 10.8024 17.8064 10.9615 17.7404C11.1207 17.6745 11.2912 17.6405 11.4635 17.6405C11.6358 17.6405 11.8063 17.6745 11.9655 17.7404C12.1246 17.8064 12.2692 17.9031 12.3909 18.0249ZM20.483 2.51677C19.2524 1.28939 17.5852 0.600098 15.8471 0.600098C14.1089 0.600098 12.4417 1.28939 11.2112 2.51677L10.5623 3.16549C10.3161 3.41169 10.1777 3.74561 10.1777 4.09379C10.1777 4.44197 10.3161 4.7759 10.5623 5.0221C10.8086 5.2683 11.1426 5.40661 11.4908 5.40661C11.8391 5.40661 12.173 5.2683 12.4193 5.0221L13.0681 4.37338C13.8057 3.63593 14.8061 3.22164 15.8492 3.22164C16.8924 3.22164 17.8927 3.63593 18.6303 4.37338C19.3679 5.11082 19.7823 6.11101 19.7823 7.15392C19.7823 8.19683 19.3679 9.19702 18.6303 9.93446L15.9967 12.5687C15.2872 13.2776 14.3335 13.6887 13.3307 13.7177C12.328 13.7468 11.3521 13.3916 10.6027 12.7248C10.4736 12.6101 10.3232 12.5219 10.16 12.4653C9.9968 12.4087 9.82405 12.3848 9.65162 12.3949C9.47918 12.4051 9.31043 12.4491 9.155 12.5244C8.99957 12.5998 8.86051 12.705 8.74575 12.834C8.63099 12.9631 8.54279 13.1135 8.48617 13.2767C8.42955 13.4399 8.40563 13.6126 8.41577 13.785C8.42592 13.9574 8.46993 14.1261 8.54529 14.2815C8.62065 14.4369 8.72588 14.5759 8.85498 14.6907C10.1046 15.8012 11.7315 16.3923 13.4027 16.343C15.0739 16.2936 16.663 15.6076 17.845 14.4253L20.4797 11.7922C21.7087 10.5622 22.3994 8.89486 22.4 7.15624C22.4006 5.41761 21.7111 3.74979 20.483 2.51895V2.51677Z" fill="white"/>
</svg>
