<svg width="33" height="27" viewBox="0 0 33 27" fill="none" xmlns="http://www.w3.org/2000/svg">
<path d="M10.3661 26.9375C22.8195 26.9375 29.6319 16.6188 29.6319 7.68609C29.6319 7.39734 29.6319 7.10446 29.6196 6.81571C30.9459 5.85559 32.0906 4.6669 33 3.30534C31.7611 3.85159 30.4482 4.21161 29.1039 4.37371C30.5199 3.52734 31.5804 2.19565 32.0884 0.626152C30.758 1.41428 29.302 1.96755 27.7839 2.26171C26.7634 1.17483 25.4129 0.454795 23.9417 0.213152C22.4705 -0.0284909 20.9606 0.22174 19.646 0.925085C18.3314 1.62843 17.2854 2.74564 16.6701 4.10365C16.0547 5.46167 15.9043 6.9847 16.2422 8.43684C13.5501 8.30185 10.9164 7.60249 8.51203 6.38412C6.10762 5.16575 3.98616 3.45558 2.28525 1.36453C1.42176 2.85589 1.15825 4.61998 1.54821 6.29858C1.93817 7.97717 2.95238 9.44443 4.38487 10.4024C3.31143 10.3659 2.26157 10.0777 1.32 9.5609V9.65371C1.32185 11.216 1.86307 12.7298 2.85218 13.9391C3.84128 15.1484 5.2176 15.9791 6.7485 16.2908C6.16742 16.4509 5.56716 16.5307 4.96444 16.528C4.53953 16.5293 4.11547 16.4899 3.69806 16.4105C4.13075 17.7553 4.97325 18.9312 6.10757 19.7733C7.24189 20.6155 8.61121 21.0817 10.0238 21.1068C7.62415 22.9915 4.66001 24.0137 1.60875 24.0087C1.0711 24.011 0.533823 23.98 0 23.9159C3.09687 25.8903 6.69343 26.9386 10.3661 26.9375Z" fill="white"/>
</svg>
