<svg width="36" height="36" viewBox="0 0 36 36" fill="none" xmlns="http://www.w3.org/2000/svg">
<path d="M30.2181 5.66707C28.6137 4.04644 26.7026 2.76149 24.5964 1.88716C22.4902 1.01283 20.231 0.566623 17.9506 0.574567C8.39558 0.574567 0.608079 8.36206 0.608079 17.9171C0.608079 20.9796 1.41308 23.9546 2.91808 26.5796L0.468079 35.5746L9.65558 33.1596C12.1931 34.5421 15.0456 35.2771 17.9506 35.2771C27.5056 35.2771 35.2931 27.4896 35.2931 17.9346C35.2931 13.2971 33.4906 8.93957 30.2181 5.66707ZM17.9506 32.3371C15.3606 32.3371 12.8231 31.6371 10.6006 30.3246L10.0756 30.0096L4.61558 31.4446L6.06808 26.1246L5.71808 25.5821C4.27913 23.2843 3.51507 20.6282 3.51308 17.9171C3.51308 9.97206 9.98808 3.49707 17.9331 3.49707C21.7831 3.49707 25.4056 5.00207 28.1181 7.73207C29.4612 9.069 30.5256 10.6592 31.2495 12.4106C31.9735 14.1619 32.3426 16.0395 32.3356 17.9346C32.3706 25.8796 25.8956 32.3371 17.9506 32.3371ZM25.8606 21.5571C25.4231 21.3471 23.2881 20.2971 22.9031 20.1396C22.5006 19.9996 22.2206 19.9296 21.9231 20.3496C21.6256 20.7871 20.8031 21.7671 20.5581 22.0471C20.3131 22.3446 20.0506 22.3796 19.6131 22.1521C19.1756 21.9421 17.7756 21.4696 16.1306 19.9996C14.8356 18.8446 13.9781 17.4271 13.7156 16.9896C13.4706 16.5521 13.6806 16.3246 13.9081 16.0971C14.1006 15.9046 14.3456 15.5896 14.5556 15.3446C14.7656 15.0996 14.8531 14.9071 14.9931 14.6271C15.1331 14.3296 15.0631 14.0846 14.9581 13.8746C14.8531 13.6646 13.9781 11.5296 13.6281 10.6546C13.2781 9.81457 12.9106 9.91957 12.6481 9.90207H11.8081C11.5106 9.90207 11.0556 10.0071 10.6531 10.4446C10.2681 10.8821 9.14808 11.9321 9.14808 14.0671C9.14808 16.2021 10.7056 18.2671 10.9156 18.5471C11.1256 18.8446 13.9781 23.2196 18.3181 25.0921C19.3506 25.5471 20.1556 25.8096 20.7856 26.0021C21.8181 26.3346 22.7631 26.2821 23.5156 26.1771C24.3556 26.0546 26.0881 25.1271 26.4381 24.1121C26.8056 23.0971 26.8056 22.2396 26.6831 22.0471C26.5606 21.8546 26.2981 21.7671 25.8606 21.5571Z" fill="white"/>
</svg>
